<?xml version="1.0" standalone="no"?>
<!DOCTYPE svg PUBLIC "-//W3C//DTD SVG 20010904//EN"
 "http://www.w3.org/TR/2001/REC-SVG-20010904/DTD/svg10.dtd">
<svg version="1.0" xmlns="http://www.w3.org/2000/svg"
 width="1067.000000pt" height="1067.000000pt" viewBox="0 0 1067.000000 1067.000000"
 preserveAspectRatio="xMidYMid meet">
<metadata>
Created by potrace 1.11, written by Peter Selinger 2001-2013
</metadata>
<g transform="translate(0.000000,1067.000000) scale(0.100000,-0.100000)"
fill="#000000" stroke="none">
<path d="M2055 9164 c-210 -32 -414 -185 -499 -373 -77 -173 -69 -347 25 -540
47 -95 149 -208 233 -256 120 -70 154 -76 484 -91 370 -16 552 -35 787 -79
541 -103 1001 -253 1440 -470 367 -181 670 -365 960 -583 310 -232 669 -576
970 -927 294 -343 614 -846 845 -1330 229 -477 418 -1089 520 -1679 48 -283
68 -495 80 -883 9 -303 14 -332 75 -453 46 -89 111 -168 184 -223 198 -148
415 -165 651 -50 175 85 306 252 341 431 15 81 6 524 -16 772 -142 1591 -718
3018 -1690 4185 -776 932 -1748 1641 -2860 2087 -618 248 -1285 399 -1980 447
-168 12 -508 21 -550 15z"/>
<path d="M2003 6516 c-258 -60 -465 -284 -498 -542 -8 -66 10 -200 39 -280 69
-189 225 -340 413 -400 30 -9 120 -19 238 -24 270 -13 321 -18 495 -52 294
-57 567 -146 800 -263 323 -161 582 -342 824 -576 291 -281 464 -509 665 -877
163 -299 280 -631 360 -1022 40 -196 51 -295 61 -565 10 -252 18 -297 74 -410
106 -212 322 -354 539 -355 60 0 184 25 248 51 184 72 337 244 386 432 21 84
13 472 -16 712 -135 1126 -592 2085 -1360 2852 -667 667 -1525 1122 -2391
1267 -329 55 -753 80 -877 52z"/>
<path d="M2601 3405 c-398 -87 -701 -368 -817 -760 -22 -75 -27 -116 -31 -242
-3 -93 -1 -178 6 -220 84 -493 494 -861 993 -890 306 -17 597 93 814 311 218
217 328 508 311 814 -29 495 -393 904 -881 991 -83 15 -318 12 -395 -4z"/>
</g>
</svg>
